# xmcd
#
# Track frame offsets:
#	150
#	16718
#	30898
#	50510
#	66720
#	82311
#	99849
#	115275
#	132328
#	149398
#	163989
#	180024
#
# Disc length: 2620 seconds
#
# Revision: 0
# Processed by: cddbd v1.5.2PL0 Copyright (c) Steve Scherf et al.
# Submitted via: dBpowerAMP V4.0
#
DISCID=9d0a3a0c
DTITLE=soulfinger experiance - tout est possible
DYEAR=1900
DGENRE=
TTITLE0=juste m'imaginer
TTITLE1=loin derrière
TTITLE2=comme une évidence
TTITLE3=des bouts de toi
TTITLE4=son coin de paradis
TTITLE5=une simple histoire
TTITLE6=j'aurais bien aimé
TTITLE7=comment le savoir
TTITLE8=ne t'en fais pas
TTITLE9=tout est possible
TTITLE10=pardonne moi
TTITLE11=si jamais
EXTD=
EXTT0=
EXTT1=
EXTT2=
EXTT3=
EXTT4=
EXTT5=
EXTT6=
EXTT7=
EXTT8=
EXTT9=
EXTT10=
EXTT11=
PLAYORDER=
